<?xml version="1.0" encoding="UTF-8" standalone="no"?>
<!DOCTYPE svg PUBLIC "-//W3C//DTD SVG 1.1//EN" "http://www.w3.org/Graphics/SVG/1.1/DTD/svg11.dtd">
<!-- Generated by graphviz version 2.40.1 (20161225.0304)
 -->
<!-- Title: TD Pages: 1 -->
<svg xmlns="http://www.w3.org/2000/svg" xmlns:xlink="http://www.w3.org/1999/xlink" width="599pt" height="595pt" viewBox="0.00 0.00 598.50 594.90">
  <g id="graph0" class="graph" transform="scale(1 1) rotate(0) translate(4 590.9)">
    <title>TD</title>
    <g id="a_graph0">
      <a xlink:title="Click the boxes for further information">
        <polygon fill="#ffffff" stroke="transparent" points="-4,4 -4,-590.9 594.5,-590.9 594.5,4 -4,4"/>
      </a>
    </g>
    <!-- 3&#45;&gt;4 -->
    <!-- 3&#45;&gt;5 -->
    <!-- 4&#45;&gt;5 -->
    <g id="edge3" class="edge">
      <title>4-&gt;5</title>
      <path fill="none" stroke="#000000" d="M302.821,-468C311.202,-468 319.6641,-468 328.0915,-468"/>
      <polygon fill="#000000" stroke="#000000" points="328.346,-471.5001 338.346,-468 328.3459,-464.5001 328.346,-471.5001"/>
    </g>
    <!-- 4&#45;&gt;6 -->
    <g id="edge4" class="edge">
      <title>4-&gt;6</title>
      <path fill="none" stroke="#000000" d="M176.5,-422.8326C176.5,-399.9002 176.5,-372.7298 176.5,-352.6866"/>
      <polygon fill="#000000" stroke="#000000" points="180.0001,-352.6364 176.5,-342.6364 173.0001,-352.6365 180.0001,-352.6364"/>
    </g>
    <!-- 5&#45;&gt;7 -->
    <!-- 6&#45;&gt;7 -->
    <g id="edge5" class="edge">
      <title>6-&gt;7</title>
      <path fill="none" stroke="#000000" d="M302.821,-324C311.202,-324 319.6641,-324 328.0915,-324"/>
      <polygon fill="#000000" stroke="#000000" points="328.346,-327.5001 338.346,-324 328.3459,-320.5001 328.346,-327.5001"/>
    </g>
    <!-- 6&#45;&gt;8 -->
    <g id="edge6" class="edge">
      <title>6-&gt;8</title>
      <path fill="none" stroke="#000000" d="M176.5,-305.4582C176.5,-297.9583 176.5,-289.1245 176.5,-280.8217"/>
      <polygon fill="#000000" stroke="#000000" points="180.0001,-280.7292 176.5,-270.7292 173.0001,-280.7292 180.0001,-280.7292"/>
    </g>
    <!-- 7&#45;&gt;9 -->
    <!-- 8&#45;&gt;9 -->
    <g id="edge7" class="edge">
      <title>8-&gt;9</title>
      <path fill="none" stroke="#000000" d="M302.821,-252C311.202,-252 319.6641,-252 328.0915,-252"/>
      <polygon fill="#000000" stroke="#000000" points="328.346,-255.5001 338.346,-252 328.3459,-248.5001 328.346,-255.5001"/>
    </g>
    <!-- 8&#45;&gt;10 -->
    <g id="edge8" class="edge">
      <title>8-&gt;10</title>
      <path fill="none" stroke="#000000" d="M176.5,-233.4582C176.5,-225.9583 176.5,-217.1245 176.5,-208.8217"/>
      <polygon fill="#000000" stroke="#000000" points="180.0001,-208.7292 176.5,-198.7292 173.0001,-208.7292 180.0001,-208.7292"/>
    </g>
    <!-- 9&#45;&gt;11 -->
    <!-- 10&#45;&gt;12 -->
    <g id="edge10" class="edge">
      <title>10-&gt;12</title>
      <path fill="none" stroke="#000000" d="M176.5,-161.6785C176.5,-145.6069 176.5,-121.5431 176.5,-100.2376"/>
      <polygon fill="#000000" stroke="#000000" points="180.0001,-100.0472 176.5,-90.0472 173.0001,-100.0473 180.0001,-100.0472"/>
    </g>
    <!-- 10&#45;&gt;C -->
    <g id="edge9" class="edge">
      <title>10-&gt;C</title>
      <path fill="none" stroke="#000000" d="M302.821,-180C311.202,-180 319.6641,-180 328.0915,-180"/>
      <polygon fill="#000000" stroke="#000000" points="328.346,-183.5001 338.346,-180 328.3459,-176.5001 328.346,-183.5001"/>
    </g>
    <!-- identification -->
    <g id="node1" class="node">
      <title>identification</title>
      <g id="a_node1">
        <a xlink:title="NULL">
          <path fill="#bcd2ee" stroke="#bcd2ee" d="M19.3333,-522C19.3333,-522 9.6667,-522 9.6667,-522 4.8333,-522 0,-517.1667 0,-512.3333 0,-512.3333 0,-423.6667 0,-423.6667 0,-418.8333 4.8333,-414 9.6667,-414 9.6667,-414 19.3333,-414 19.3333,-414 24.1667,-414 29,-418.8333 29,-423.6667 29,-423.6667 29,-512.3333 29,-512.3333 29,-517.1667 24.1667,-522 19.3333,-522"/>
          <text text-anchor="middle" x="464.4" y="16.5" font-family="Helvetica,sans-Serif" font-size="12.00" fill="#000000" transform="rotate(-90)"></text>
        </a>
      </g>
    </g>
    <!-- screening -->
    <g id="node2" class="node">
      <title>screening</title>
      <g id="a_node2">
        <a xlink:title="NULL">
          <path fill="#bcd2ee" stroke="#bcd2ee" d="M19.3333,-360C19.3333,-360 9.6667,-360 9.6667,-360 4.8333,-360 0,-355.1667 0,-350.3333 0,-350.3333 0,-153.6667 0,-153.6667 0,-148.8333 4.8333,-144 9.6667,-144 9.6667,-144 19.3333,-144 19.3333,-144 24.1667,-144 29,-148.8333 29,-153.6667 29,-153.6667 29,-350.3333 29,-350.3333 29,-355.1667 24.1667,-360 19.3333,-360"/>
          <text text-anchor="middle" x="248.4" y="16.5" font-family="Helvetica,sans-Serif" font-size="12.00" fill="#000000" transform="rotate(-90)"></text>
        </a>
      </g>
    </g>
    <!-- included -->
    <g id="node3" class="node">
      <title>included</title>
      <g id="a_node3">
        <a xlink:title="NULL">
          <path fill="#bcd2ee" stroke="#bcd2ee" d="M19.3333,-108C19.3333,-108 9.6667,-108 9.6667,-108 4.8333,-108 0,-103.1667 0,-98.3333 0,-98.3333 0,-9.6667 0,-9.6667 0,-4.8333 4.8333,0 9.6667,0 9.6667,0 19.3333,0 19.3333,0 24.1667,0 29,-4.8333 29,-9.6667 29,-9.6667 29,-98.3333 29,-98.3333 29,-103.1667 24.1667,-108 19.3333,-108"/>
          <text text-anchor="middle" x="50.4" y="16.5" font-family="Helvetica,sans-Serif" font-size="12.00" fill="#000000" transform="rotate(-90)"></text>
        </a>
      </g>
    </g>
    <!-- 3 -->
    <g id="node4" class="node">
      <title>3</title>
      <g id="a_node4">
        <a xlink:title="Caixa amarela; Identificação de novos estudos via bases de dados e registros">
          <path fill="#ffc125" stroke="#ffc125" d="M580.8333,-586.9C580.8333,-586.9 60.1667,-586.9 60.1667,-586.9 55.3333,-586.9 50.5,-582.0667 50.5,-577.2333 50.5,-577.2333 50.5,-567.5667 50.5,-567.5667 50.5,-562.7333 55.3333,-557.9 60.1667,-557.9 60.1667,-557.9 580.8333,-557.9 580.8333,-557.9 585.6667,-557.9 590.5,-562.7333 590.5,-567.5667 590.5,-567.5667 590.5,-577.2333 590.5,-577.2333 590.5,-582.0667 585.6667,-586.9 580.8333,-586.9"/>
          <text text-anchor="middle" x="320.5" y="-568.8" font-family="Helvetica,sans-Serif" font-size="12.00" fill="#000000">Identificação de novos estudos via bases de dados e registros</text>
        </a>
      </g>
    </g>
    <!-- 4 -->
    <g id="node5" class="node">
      <title>4</title>
      <g id="a_node5">
        <a xlink:title="Registros identificados em: Bases de dados e Registros">
          <polygon fill="none" stroke="#000000" points="302.5,-513 50.5,-513 50.5,-423 302.5,-423 302.5,-513"/>
          <text text-anchor="middle" x="176.5" y="-493.2" font-family="Helvetica,sans-Serif" font-size="12.00" fill="#000000">Records identified from:</text>
          <text text-anchor="middle" x="176.5" y="-478.8" font-family="Helvetica,sans-Serif" font-size="12.00" fill="#000000">Bases de dados (n = 365):</text>
          <text text-anchor="middle" x="176.5" y="-464.4" font-family="Helvetica,sans-Serif" font-size="12.00" fill="#000000">Scopus (API) (n = 193)</text>
          <text text-anchor="middle" x="176.5" y="-450" font-family="Helvetica,sans-Serif" font-size="12.00" fill="#000000">Web of Science (manual) (n = 172)</text>
          <text text-anchor="middle" x="176.5" y="-435.6" font-family="Helvetica,sans-Serif" font-size="12.00" fill="#000000">Registros (n = 0)</text>
        </a>
      </g>
    </g>
    <!-- 5 -->
    <g id="node6" class="node">
      <title>5</title>
      <g id="a_node6">
        <a xlink:title="Registros duplicados">
          <polygon fill="none" stroke="#000000" points="590.5,-515.4009 338.5,-515.4009 338.5,-420.5991 590.5,-420.5991 590.5,-515.4009"/>
          <text text-anchor="middle" x="464.5" y="-500.4" font-family="Helvetica,sans-Serif" font-size="12.00" fill="#000000">Records removed before screening:</text>
          <text text-anchor="middle" x="464.5" y="-486" font-family="Helvetica,sans-Serif" font-size="12.00" fill="#000000">Registros duplicados (n = 117)</text>
          <text text-anchor="middle" x="464.5" y="-471.6" font-family="Helvetica,sans-Serif" font-size="12.00" fill="#000000">Registros inelegíveis por automação</text>
          <text text-anchor="middle" x="464.5" y="-457.2" font-family="Helvetica,sans-Serif" font-size="12.00" fill="#000000">(filtros documental e temporal) (n = 55)</text>
          <text text-anchor="middle" x="464.5" y="-442.8" font-family="Helvetica,sans-Serif" font-size="12.00" fill="#000000">Registros removidos por outros motivos (n</text>
          <text text-anchor="middle" x="464.5" y="-428.4" font-family="Helvetica,sans-Serif" font-size="12.00" fill="#000000">= 0)</text>
        </a>
      </g>
    </g>
    <!-- 6 -->
    <g id="node7" class="node">
      <title>6</title>
      <g id="a_node7">
        <a xlink:title="Registros triados (bases de dados e registros)">
          <polygon fill="none" stroke="#000000" points="302.5,-342.3005 50.5,-342.3005 50.5,-305.6995 302.5,-305.6995 302.5,-342.3005"/>
          <text text-anchor="middle" x="176.5" y="-327.6" font-family="Helvetica,sans-Serif" font-size="12.00" fill="#000000">Registros triados</text>
          <text text-anchor="middle" x="176.5" y="-313.2" font-family="Helvetica,sans-Serif" font-size="12.00" fill="#000000">(n = 193)</text>
        </a>
      </g>
    </g>
    <!-- 7 -->
    <g id="node8" class="node">
      <title>7</title>
      <g id="a_node8">
        <a xlink:title="Registros excluídos (bases de dados e registros)">
          <polygon fill="none" stroke="#000000" points="590.5,-342.3005 338.5,-342.3005 338.5,-305.6995 590.5,-305.6995 590.5,-342.3005"/>
          <text text-anchor="middle" x="464.5" y="-327.6" font-family="Helvetica,sans-Serif" font-size="12.00" fill="#000000">Registros excluídos</text>
          <text text-anchor="middle" x="464.5" y="-313.2" font-family="Helvetica,sans-Serif" font-size="12.00" fill="#000000">(n = 145)</text>
        </a>
      </g>
    </g>
    <!-- 8 -->
    <g id="node9" class="node">
      <title>8</title>
      <g id="a_node9">
        <a xlink:title="Relatórios buscados para recuperação (bases de dados e registros)">
          <polygon fill="none" stroke="#000000" points="302.5,-270.3005 50.5,-270.3005 50.5,-233.6995 302.5,-233.6995 302.5,-270.3005"/>
          <text text-anchor="middle" x="176.5" y="-255.6" font-family="Helvetica,sans-Serif" font-size="12.00" fill="#000000">Relatórios buscados para recuperação</text>
          <text text-anchor="middle" x="176.5" y="-241.2" font-family="Helvetica,sans-Serif" font-size="12.00" fill="#000000">(n = 48)</text>
        </a>
      </g>
    </g>
    <!-- 9 -->
    <g id="node10" class="node">
      <title>9</title>
      <g id="a_node10">
        <a xlink:title="Relatórios não recuperados (bases de dados e registros)">
          <polygon fill="none" stroke="#000000" points="590.5,-270.3005 338.5,-270.3005 338.5,-233.6995 590.5,-233.6995 590.5,-270.3005"/>
          <text text-anchor="middle" x="464.5" y="-255.6" font-family="Helvetica,sans-Serif" font-size="12.00" fill="#000000">Relatórios não recuperados</text>
          <text text-anchor="middle" x="464.5" y="-241.2" font-family="Helvetica,sans-Serif" font-size="12.00" fill="#000000">(n = 0)</text>
        </a>
      </g>
    </g>
    <!-- 10 -->
    <g id="node11" class="node">
      <title>10</title>
      <g id="a_node11">
        <a xlink:title="Relatórios avaliados para elegibilidade (bases de dados e registros)">
          <polygon fill="none" stroke="#000000" points="302.5,-198.3005 50.5,-198.3005 50.5,-161.6995 302.5,-161.6995 302.5,-198.3005"/>
          <text text-anchor="middle" x="176.5" y="-183.6" font-family="Helvetica,sans-Serif" font-size="12.00" fill="#000000">Relatórios avaliados para elegibilidade</text>
          <text text-anchor="middle" x="176.5" y="-169.2" font-family="Helvetica,sans-Serif" font-size="12.00" fill="#000000">(n = 48)</text>
        </a>
      </g>
    </g>
    <!-- 11 -->
    <g id="node12" class="node">
      <title>11</title>
      <g id="a_node12">
        <a xlink:title="Relatórios excluídos (bases de dados e registros)">
          <polygon fill="#ffffff" stroke="#000000" points="590.5,-198.3005 338.5,-198.3005 338.5,-161.6995 590.5,-161.6995 590.5,-198.3005"/>
          <text text-anchor="middle" x="464.5" y="-183.6" font-family="Helvetica,sans-Serif" font-size="12.00" fill="#000000">Relatórios excluídos:</text>
          <text text-anchor="middle" x="464.5" y="-169.2" font-family="Helvetica,sans-Serif" font-size="12.00" fill="#000000"> (n = )</text>
        </a>
      </g>
    </g>
    <!-- 12 -->
    <g id="node13" class="node">
      <title>12</title>
      <g id="a_node13">
        <a xlink:title="Novos estudos incluídos na revisão">
          <polygon fill="none" stroke="#000000" points="302.5,-90 50.5,-90 50.5,-18 302.5,-18 302.5,-90"/>
          <text text-anchor="middle" x="176.5" y="-72" font-family="Helvetica,sans-Serif" font-size="12.00" fill="#000000">Novos estudos incluídos na revisão</text>
          <text text-anchor="middle" x="176.5" y="-57.6" font-family="Helvetica,sans-Serif" font-size="12.00" fill="#000000">(n = 48)</text>
          <text text-anchor="middle" x="176.5" y="-43.2" font-family="Helvetica,sans-Serif" font-size="12.00" fill="#000000">Relatórios de novos estudos incluídos</text>
          <text text-anchor="middle" x="176.5" y="-28.8" font-family="Helvetica,sans-Serif" font-size="12.00" fill="#000000">(n = 48)</text>
        </a>
      </g>
    </g>
    <!-- C -->
  </g>
</svg>
